<?xml version="1.0" encoding="iso-8859-1"?>
<!-- Generator: Adobe Illustrator 19.0.0, SVG Export Plug-In . SVG Version: 6.00 Build 0)  -->
<svg version="1.1" id="Layer_1" xmlns="http://www.w3.org/2000/svg" xmlns:xlink="http://www.w3.org/1999/xlink" x="0px" y="0px"
	 viewBox="0 0 512 512" style="enable-background:new 0 0 512 512;" xml:space="preserve">
<rect x="8.084" y="53.895" style="fill:#3E3D42;" width="495.832" height="351.394"/>
<path style="fill:#57565C;" d="M503.916,53.895c-32.758,173.649-193.023,305.583-388.444,305.583c-37.216,0-107.387,0-107.387,0
	V53.895H503.916z"/>
<circle style="fill:#64C37D;" cx="455.41" cy="361.095" r="16.168"/>
<path d="M455.41,385.347c-13.373,0-24.253-10.88-24.253-24.253s10.879-24.253,24.253-24.253c13.373,0,24.253,10.88,24.253,24.253
	S468.784,385.347,455.41,385.347z M455.41,353.01c-4.458,0-8.084,3.626-8.084,8.084s3.626,8.084,8.084,8.084
	c4.458,0,8.084-3.626,8.084-8.084S459.869,353.01,455.41,353.01z"/>
<polygon points="512,413.373 212.345,413.373 212.345,397.204 495.832,397.204 495.832,61.979 16.168,61.979 16.168,397.204 
	66.829,397.204 66.829,413.373 0,413.373 0,45.811 512,45.811 "/>
<rect x="40.421" y="85.154" style="fill:#898890;" width="431.158" height="233.903"/>
<path style="fill:#ACABB1;" d="M425.661,85.154c-52.569,114.203-168.011,193.482-301.972,193.482
	c-28.758,0-56.654-3.654-83.267-10.52V85.154H425.661z"/>
<rect x="90.004" y="234.981" style="fill:#FFFFFF;" width="97.011" height="223.124"/>
<path d="M195.099,466.189H81.92V226.897h113.179V466.189z M98.088,450.021h80.842V243.065H98.088V450.021z"/>
<rect x="114.257" y="256" style="fill:#FF5023;" width="32.337" height="16.168"/>
<rect x="114.257" y="288.337" width="16.168" height="16.168"/>
<rect x="146.594" y="288.337" width="16.168" height="16.168"/>
<rect x="114.257" y="320.674" width="16.168" height="16.168"/>
<rect x="146.594" y="320.674" width="16.168" height="16.168"/>
<rect x="114.257" y="353.01" width="16.168" height="16.168"/>
<rect x="146.594" y="353.01" width="16.168" height="16.168"/>
<rect x="114.257" y="385.347" width="16.168" height="16.168"/>
<rect x="146.594" y="385.347" width="16.168" height="16.168"/>
<g>
	
		<rect x="372.156" y="134.308" transform="matrix(-0.7071 -0.7071 0.7071 -0.7071 607.0204 536.2204)" style="fill:#FFFFFF;" width="84.819" height="16.168"/>
	
		<rect x="308.895" y="160.501" transform="matrix(-0.7071 -0.7071 0.7071 -0.7071 543.7499 562.3985)" style="fill:#FFFFFF;" width="158.912" height="16.168"/>
	<polygon style="fill:#FFFFFF;" points="479.663,327.141 212.345,327.141 212.345,310.973 463.495,310.973 463.495,93.238 
		114.796,93.238 114.796,77.069 479.663,77.069 	"/>
	<polygon style="fill:#FFFFFF;" points="66.829,327.141 32.337,327.141 32.337,77.069 66.291,77.069 66.291,93.238 48.505,93.238 
		48.505,310.973 66.829,310.973 	"/>
	<rect x="81.381" y="77.069" style="fill:#FFFFFF;" width="16.168" height="16.168"/>
</g>
<g>
</g>
<g>
</g>
<g>
</g>
<g>
</g>
<g>
</g>
<g>
</g>
<g>
</g>
<g>
</g>
<g>
</g>
<g>
</g>
<g>
</g>
<g>
</g>
<g>
</g>
<g>
</g>
<g>
</g>
</svg>
