<?xml version="1.0" encoding="utf-8"?><svg xmlns="http://www.w3.org/2000/svg" xmlns:xlink="http://www.w3.org/1999/xlink"><symbol viewBox="0 0 57 57" id="fast-forward" xmlns="http://www.w3.org/2000/svg"><path d="M56.575 27.683l-27-19A.999.999 0 1 0 28 9.5v17.777L1.575 8.694A1.001 1.001 0 0 0 0 9.513v37.975a1.001 1.001 0 0 0 1 .999c.202 0 .403-.062.575-.182L28 29.723V47.5a1.001 1.001 0 0 0 1 1 .997.997 0 0 0 .575-.183l27-19a.996.996 0 0 0 0-1.634zM2 45.562V11.439L26.262 28.5 2 45.562zm28 .011V11.427L54.263 28.5 30 45.573z"/></symbol><symbol viewBox="0 0 58.999 58.999" id="fingerprint" xmlns="http://www.w3.org/2000/svg"><path d="M29.083 26.038c-.53.154-.836.708-.683 1.239.027.093 2.697 9.591 1.962 30.687a.997.997 0 0 0 .964 1.034l.036.001a1 1 0 0 0 .998-.965c.747-21.414-1.925-30.919-2.038-31.313a1.002 1.002 0 0 0-1.239-.683zm25.145-9.559A26.952 26.952 0 0 0 29.362 0c-3.587 0-7.085.701-10.396 2.083a32.298 32.298 0 0 0-5.151 2.704 1.001 1.001 0 0 0 1.09 1.678 30.266 30.266 0 0 1 4.831-2.536A24.846 24.846 0 0 1 29.362 2a24.952 24.952 0 0 1 23.023 15.259c1.63 3.854 2.511 10.95 2.891 14.838a.999.999 0 1 0 1.99-.196c-.477-4.886-1.391-11.529-3.038-15.422zM10.851 9.711a1 1 0 1 0-1.404-1.424C4.069 13.585-1.288 23.438 3.73 40.284a.998.998 0 1 0 1.916-.57C1.899 27.132 3.698 16.758 10.851 9.711z"/><path d="M30.13 6.014a20.753 20.753 0 0 0-8.853 1.606C11.471 11.711 6.257 22.494 9.15 32.704c.289 1.021.585 2.107.744 3.189.358 2.449.377 6.956.377 14.105a1 1 0 1 0 2 0c0-7.458-.019-11.804-.398-14.396-.176-1.202-.491-2.36-.799-3.444-2.617-9.236 2.1-18.992 10.973-22.693a19.062 19.062 0 0 1 8.012-1.454c7.111.256 15.171 6.524 17.602 13.689 2.104 6.199 2.122 16.76 1.861 26.271a1 1 0 0 0 .973 1.027c.542-.01 1.012-.419 1.027-.973.265-9.689.238-20.471-1.967-26.969C46.838 13.049 38.124 6.3 30.13 6.014z"/><path d="M29.362 12c-1.087 0-2.169.117-3.218.349a1 1 0 1 0 .431 1.953c.907-.2 1.845-.302 2.786-.302 5.233 0 9.933 3.114 11.972 7.935 2.43 5.74 2.589 14.953 2.028 31.029a.998.998 0 0 0 .964 1.034l.036.001a1 1 0 0 0 .998-.965c.584-16.723.406-25.758-2.185-31.879A14.968 14.968 0 0 0 29.362 12zm-7.427 4.337a1 1 0 1 0-1.149-1.637c-5.15 3.616-7.388 10.563-5.565 17.295.021.073 2.051 7.462 2.051 19.004a1 1 0 1 0 2 0c0-11.813-2.038-19.232-2.123-19.535-1.601-5.914.323-11.993 4.786-15.127zm17.337 31.669a1 1 0 0 0-.993-1.007h-.007a1 1 0 0 0-1 .993c-.005.752.02 1.85.047 3.036.039 1.725.083 3.68.04 4.937a.997.997 0 0 0 1 1.034 1 1 0 0 0 .998-.966c.046-1.313.001-3.299-.039-5.051a114.8 114.8 0 0 1-.046-2.976z"/><path d="M29.362 19a7.962 7.962 0 0 0-3.081.618c-3.892 1.624-5.783 6.015-4.4 10.214.754 2.289 1.391 14.272 1.391 26.167a1 1 0 1 0 2 0c0-10.707-.57-23.995-1.49-26.792-1.054-3.197.353-6.526 3.27-7.743a5.994 5.994 0 0 1 7.839 3.206c1.867 4.419 2.422 12.419 2.558 18.353a1 1 0 0 0 1 .977h.023c.552-.013.989-.471.977-1.023-.141-6.106-.726-14.375-2.72-19.093A7.983 7.983 0 0 0 29.362 19z"/></symbol><symbol viewBox="0 0 60 60" id="more" xmlns="http://www.w3.org/2000/svg"><path d="M8 22c-4.411 0-8 3.589-8 8s3.589 8 8 8 8-3.589 8-8-3.589-8-8-8zm0 14c-3.309 0-6-2.691-6-6s2.691-6 6-6 6 2.691 6 6-2.691 6-6 6zm44-14c-4.411 0-8 3.589-8 8s3.589 8 8 8 8-3.589 8-8-3.589-8-8-8zm0 14c-3.309 0-6-2.691-6-6s2.691-6 6-6 6 2.691 6 6-2.691 6-6 6zM30 22c-4.411 0-8 3.589-8 8s3.589 8 8 8 8-3.589 8-8-3.589-8-8-8zm0 14c-3.309 0-6-2.691-6-6s2.691-6 6-6 6 2.691 6 6-2.691 6-6 6z"/></symbol><symbol viewBox="0 0 55 55" id="network" xmlns="http://www.w3.org/2000/svg"><path d="M49 0c-3.309 0-6 2.691-6 6 0 1.035.263 2.009.726 2.86l-9.829 9.829a7.943 7.943 0 0 0-9.795-.001l-7.669-7.669A3.947 3.947 0 0 0 17 9c0-2.206-1.794-4-4-4S9 6.794 9 9s1.794 4 4 4c.74 0 1.424-.215 2.019-.567l7.669 7.669a7.953 7.953 0 0 0 0 9.795L10.024 42.562A5.971 5.971 0 0 0 6 41c-3.309 0-6 2.691-6 6s2.691 6 6 6 6-2.691 6-6a5.966 5.966 0 0 0-.726-2.86l12.829-12.829a7.953 7.953 0 0 0 3.898 1.619v10.16c-2.833.478-5 2.942-5 5.91 0 3.309 2.691 6 6 6s6-2.691 6-6c0-2.967-2.167-5.431-5-5.91V32.93a7.953 7.953 0 0 0 3.898-1.619l7.669 7.669A3.945 3.945 0 0 0 41 41c0 2.206 1.794 4 4 4s4-1.794 4-4-1.794-4-4-4c-.74 0-1.424.215-2.019.567l-7.669-7.669a7.953 7.953 0 0 0 0-9.795l9.665-9.665A5.967 5.967 0 0 0 49 12c3.309 0 6-2.691 6-6s-2.691-6-6-6zM11 9c0-1.103.897-2 2-2s2 .897 2 2-.897 2-2 2-2-.897-2-2zM6 51c-2.206 0-4-1.794-4-4s1.794-4 4-4 4 1.794 4 4-1.794 4-4 4zm27-2c0 2.206-1.794 4-4 4s-4-1.794-4-4 1.794-4 4-4 4 1.794 4 4zm-4-18c-3.309 0-6-2.691-6-6s2.691-6 6-6 6 2.691 6 6-2.691 6-6 6zm18 10c0 1.103-.897 2-2 2s-2-.897-2-2 .897-2 2-2 2 .897 2 2zm2-31c-2.206 0-4-1.794-4-4s1.794-4 4-4 4 1.794 4 4-1.794 4-4 4z"/></symbol><symbol viewBox="0 0 42 42" id="pause" xmlns="http://www.w3.org/2000/svg"><path d="M14.5 0a1 1 0 0 0-1 1v40a1 1 0 1 0 2 0V1a1 1 0 0 0-1-1zm13 0a1 1 0 0 0-1 1v40a1 1 0 1 0 2 0V1a1 1 0 0 0-1-1z"/></symbol><symbol viewBox="0 0 57 57" id="rewind" xmlns="http://www.w3.org/2000/svg"><path d="M56.461 8.625a1.001 1.001 0 0 0-1.036.069L29 27.277V9.5a1.001 1.001 0 0 0-1.575-.818l-27 19a.999.999 0 0 0 0 1.635l27 19a.992.992 0 0 0 1.036.071c.331-.172.539-.515.539-.888V29.723l26.425 18.583a1.005 1.005 0 0 0 1.036.07c.331-.173.539-.516.539-.889V9.513c0-.373-.208-.716-.539-.888zM27 45.573L2.737 28.5 27 11.427v34.146zm28-.011L30.738 28.5 55 11.439v34.123z"/></symbol><symbol viewBox="0 0 52.026 52.026" id="speaker-5" xmlns="http://www.w3.org/2000/svg"><path d="M28.404 3.413a3.029 3.029 0 0 0-3.09.044.929.929 0 0 0-.13.093l-13.55 11.463H1a1 1 0 0 0-1 1v19a1.002 1.002 0 0 0 1 1l10.61-.005 13.543 12.44c.05.046.104.086.161.12a3.055 3.055 0 0 0 1.582.446 3.07 3.07 0 0 0 1.508-.402A3.122 3.122 0 0 0 30 45.857V6.169a3.125 3.125 0 0 0-1.596-2.756zM28 45.857c0 .431-.217.81-.579 1.015a1.049 1.049 0 0 1-1 .026L13 34.569v-4.556a1 1 0 1 0-2 0v3.996l-9 .004v-17h9v4a1 1 0 1 0 2 0v-4.536l13.405-11.34c.461-.242.86-.07 1.016.018.362.205.579.584.579 1.014v39.688zM38.797 7.066a1.002 1.002 0 0 0-.643 1.895 17.48 17.48 0 0 1 11.872 16.553 17.492 17.492 0 0 1-11.849 16.554 1 1 0 0 0 .646 1.893 19.489 19.489 0 0 0 13.202-18.446A19.478 19.478 0 0 0 38.797 7.066z"/><path d="M43.026 25.513c0-5.972-4.009-11.302-9.749-12.962a1 1 0 0 0-.554 1.922c4.889 1.413 8.304 5.953 8.304 11.04s-3.415 9.627-8.304 11.04a1 1 0 0 0 .554 1.922c5.741-1.66 9.749-6.99 9.749-12.962z"/></symbol></svg>